<svg width="101" height="100" viewBox="0 0 101 100" fill="none" xmlns="http://www.w3.org/2000/svg">
<mask id="mask0_189_2114" style="mask-type:alpha" maskUnits="userSpaceOnUse" x="0" y="0" width="101" height="100">
<rect x="0.5" width="100" height="100" fill="#D9D9D9"/>
</mask>
<g mask="url(#mask0_189_2114)">
<path d="M29.6667 91.6667V53.5417C26.1251 52.5694 23.1563 50.625 20.7605 47.7083C18.3647 44.7917 17.1667 41.3889 17.1667 37.5V8.33333H25.5001V37.5H29.6667V8.33333H38.0001V37.5H42.1667V8.33333H50.5001V37.5C50.5001 41.3889 49.3022 44.7917 46.9063 47.7083C44.5105 50.625 41.5417 52.5694 38.0001 53.5417V91.6667H29.6667ZM71.3334 91.6667V58.3333H58.8334V29.1667C58.8334 23.4028 60.8647 18.4896 64.9272 14.4271C68.9897 10.3646 73.9029 8.33333 79.6667 8.33333V91.6667H71.3334Z" fill="white"/>
</g>
</svg>
