<svg width="14" height="14" viewBox="0 0 14 14" fill="none" xmlns="http://www.w3.org/2000/svg">
<path d="M4.20388 14C3.81853 14 3.48864 13.8629 3.21422 13.5887C2.9398 13.3146 2.80259 12.985 2.80259 12.6C2.80259 12.215 2.9398 11.8854 3.21422 11.6112C3.48864 11.3371 3.81853 11.2 4.20388 11.2C4.58924 11.2 4.91913 11.3371 5.19355 11.6112C5.46797 11.8854 5.60518 12.215 5.60518 12.6C5.60518 12.985 5.46797 13.3146 5.19355 13.5887C4.91913 13.8629 4.58924 14 4.20388 14ZM11.2104 14C10.825 14 10.4951 13.8629 10.2207 13.5887C9.94627 13.3146 9.80906 12.985 9.80906 12.6C9.80906 12.215 9.94627 11.8854 10.2207 11.6112C10.4951 11.3371 10.825 11.2 11.2104 11.2C11.5957 11.2 11.9256 11.3371 12.2 11.6112C12.4744 11.8854 12.6117 12.215 12.6117 12.6C12.6117 12.985 12.4744 13.3146 12.2 13.5887C11.9256 13.8629 11.5957 14 11.2104 14ZM3.60833 2.8L5.28989 6.3H10.1944L12.1212 2.8H3.60833ZM2.94272 1.4H13.2773C13.5458 1.4 13.7502 1.51958 13.8903 1.75875C14.0305 1.99792 14.0363 2.24 13.9079 2.485L11.4206 6.965C11.2921 7.19833 11.1199 7.37917 10.9038 7.5075C10.6878 7.63583 10.4513 7.7 10.1944 7.7H4.9746L4.20388 9.1H12.6117V10.5H4.20388C3.6784 10.5 3.28137 10.2696 3.01278 9.80875C2.7442 9.34792 2.73252 8.89 2.97775 8.435L3.92363 6.72L1.40129 1.4H0V0H2.2771L2.94272 1.4Z" fill="#A3FF87"/>
</svg>
