<svg width="101" height="100" viewBox="0 0 101 100" fill="none" xmlns="http://www.w3.org/2000/svg">
<mask id="mask0_189_2128" style="mask-type:alpha" maskUnits="userSpaceOnUse" x="0" y="0" width="101" height="100">
<rect x="0.5" width="100" height="100" fill="#D9D9D9"/>
</mask>
<g mask="url(#mask0_189_2128)">
<path d="M88.3125 93.75L79.4583 84.8958C76.0556 86.9792 72.3403 87.8125 68.3125 87.3958C64.2847 86.9792 60.7778 85.2778 57.7917 82.2917C55.7778 80.2778 54.3542 77.9687 53.5208 75.3646C52.6875 72.7604 52.4444 70.1389 52.7917 67.5C50.1528 67.8472 47.5313 67.6042 44.9271 66.7708C42.3229 65.9375 40.0139 64.5139 38 62.5C35.9861 60.4861 34.5625 58.1771 33.7292 55.5729C32.8958 52.9688 32.6528 50.3472 33 47.7083C30.3611 48.0556 27.7396 47.8125 25.1354 46.9792C22.5312 46.1458 20.2222 44.7222 18.2083 42.7083C15.2222 39.7222 13.5208 36.1979 13.1042 32.1354C12.6875 28.0729 13.5208 24.3403 15.6042 20.9375L6.75 12.0833L12.5833 6.25L21.5417 15.1042C24.9444 13.0208 28.6597 12.1875 32.6875 12.6042C36.7153 13.0208 40.2222 14.7222 43.2083 17.7083C45.2222 19.7222 46.6458 22.0139 47.4792 24.5833C48.3125 27.1528 48.5556 29.7569 48.2083 32.3958C50.8472 32.0486 53.4688 32.309 56.0729 33.1771C58.6771 34.0451 60.9861 35.4861 63 37.5C65.0139 39.5139 66.4375 41.8056 67.2708 44.375C68.1042 46.9444 68.3472 49.5486 68 52.1875C70.6389 51.8403 73.2604 52.1007 75.8646 52.9688C78.4687 53.8368 80.7778 55.2778 82.7917 57.2917C85.7778 60.2778 87.4792 63.7847 87.8958 67.8125C88.3125 71.8403 87.4792 75.5556 85.3958 78.9583L94.25 87.8125L88.3125 93.75ZM70.2917 79.1667C72.9306 79.1667 75.1528 78.2639 76.9583 76.4583C78.7639 74.6528 79.6667 72.4306 79.6667 69.7917C79.6667 67.1528 78.7639 64.9306 76.9583 63.125C75.1528 61.3194 72.9306 60.4167 70.2917 60.4167C67.6528 60.4167 65.4306 61.3194 63.625 63.125C61.8194 64.9306 60.9167 67.1528 60.9167 69.7917C60.9167 72.4306 61.8194 74.6528 63.625 76.4583C65.4306 78.2639 67.6528 79.1667 70.2917 79.1667ZM50.5 59.375C53.1389 59.375 55.3611 58.4722 57.1667 56.6667C58.9722 54.8611 59.875 52.6389 59.875 50C59.875 47.3611 58.9722 45.1389 57.1667 43.3333C55.3611 41.5278 53.1389 40.625 50.5 40.625C47.8611 40.625 45.6389 41.5278 43.8333 43.3333C42.0278 45.1389 41.125 47.3611 41.125 50C41.125 52.6389 42.0278 54.8611 43.8333 56.6667C45.6389 58.4722 47.8611 59.375 50.5 59.375ZM30.7083 39.5833C33.3472 39.5833 35.5694 38.6806 37.375 36.875C39.1806 35.0694 40.0833 32.8472 40.0833 30.2083C40.0833 27.5694 39.1806 25.3472 37.375 23.5417C35.5694 21.7361 33.3472 20.8333 30.7083 20.8333C28.0694 20.8333 25.8472 21.7361 24.0417 23.5417C22.2361 25.3472 21.3333 27.5694 21.3333 30.2083C21.3333 32.8472 22.2361 35.0694 24.0417 36.875C25.8472 38.6806 28.0694 39.5833 30.7083 39.5833Z" fill="#33B148"/>
</g>
</svg>
