<svg width="100" height="100" viewBox="0 0 100 100" fill="none" xmlns="http://www.w3.org/2000/svg">
<mask id="mask0_683_8916" style="mask-type:alpha" maskUnits="userSpaceOnUse" x="0" y="0" width="100" height="100">
<rect width="100" height="100" fill="#D9D9D9"/>
</mask>
<g mask="url(#mask0_683_8916)">
<path d="M24.3752 71.2497C27.9168 68.5413 31.8752 66.4059 36.2502 64.8434C40.6252 63.2809 45.2085 62.4997 50.0002 62.4997C54.7918 62.4997 59.3752 63.2809 63.7502 64.8434C68.1252 66.4059 72.0835 68.5413 75.6252 71.2497C78.0557 68.4025 79.9481 65.1733 81.3023 61.5622C82.6564 57.9511 83.3335 54.0969 83.3335 49.9997C83.3335 40.7636 80.087 32.899 73.5939 26.4059C67.1009 19.9129 59.2363 16.6663 50.0002 16.6663C40.7641 16.6663 32.8995 19.9129 26.4064 26.4059C19.9134 32.899 16.6668 40.7636 16.6668 49.9997C16.6668 54.0969 17.3439 57.9511 18.6981 61.5622C20.0522 65.1733 21.9446 68.4025 24.3752 71.2497ZM50.0002 54.1663C45.9029 54.1663 42.4481 52.7601 39.6356 49.9476C36.8231 47.1351 35.4168 43.6802 35.4168 39.583C35.4168 35.4858 36.8231 32.0309 39.6356 29.2184C42.4481 26.4059 45.9029 24.9997 50.0002 24.9997C54.0974 24.9997 57.5523 26.4059 60.3648 29.2184C63.1773 32.0309 64.5835 35.4858 64.5835 39.583C64.5835 43.6802 63.1773 47.1351 60.3648 49.9476C57.5523 52.7601 54.0974 54.1663 50.0002 54.1663ZM50.0002 91.6663C44.2363 91.6663 38.8196 90.5726 33.7502 88.3851C28.6807 86.1976 24.271 83.2289 20.521 79.4788C16.771 75.7288 13.8022 71.3191 11.6147 66.2497C9.42725 61.1802 8.3335 55.7636 8.3335 49.9997C8.3335 44.2358 9.42725 38.8191 11.6147 33.7497C13.8022 28.6802 16.771 24.2705 20.521 20.5205C24.271 16.7705 28.6807 13.8018 33.7502 11.6143C38.8196 9.42676 44.2363 8.33301 50.0002 8.33301C55.7641 8.33301 61.1807 9.42676 66.2502 11.6143C71.3196 13.8018 75.7293 16.7705 79.4793 20.5205C83.2293 24.2705 86.1981 28.6802 88.3856 33.7497C90.5731 38.8191 91.6668 44.2358 91.6668 49.9997C91.6668 55.7636 90.5731 61.1802 88.3856 66.2497C86.1981 71.3191 83.2293 75.7288 79.4793 79.4788C75.7293 83.2289 71.3196 86.1976 66.2502 88.3851C61.1807 90.5726 55.7641 91.6663 50.0002 91.6663ZM50.0002 83.333C53.6807 83.333 57.1529 82.7948 60.4168 81.7184C63.6807 80.642 66.6668 79.0969 69.3752 77.083C66.6668 75.0691 63.6807 73.524 60.4168 72.4476C57.1529 71.3712 53.6807 70.833 50.0002 70.833C46.3196 70.833 42.8474 71.3712 39.5835 72.4476C36.3196 73.524 33.3335 75.0691 30.6252 77.083C33.3335 79.0969 36.3196 80.642 39.5835 81.7184C42.8474 82.7948 46.3196 83.333 50.0002 83.333ZM50.0002 45.833C51.8057 45.833 53.2988 45.2427 54.4793 44.0622C55.6599 42.8816 56.2502 41.3886 56.2502 39.583C56.2502 37.7775 55.6599 36.2844 54.4793 35.1038C53.2988 33.9233 51.8057 33.333 50.0002 33.333C48.1946 33.333 46.7016 33.9233 45.521 35.1038C44.3404 36.2844 43.7502 37.7775 43.7502 39.583C43.7502 41.3886 44.3404 42.8816 45.521 44.0622C46.7016 45.2427 48.1946 45.833 50.0002 45.833Z" fill="#FE9530"/>
</g>
</svg>
